/* XPM */
static char * circle_xpm[] = {
"48 48 37 1",
" 	c None",
".	c #7E7E7E",
"+	c #808080",
"@	c #7F7F7F",
"#	c #828282",
"$	c #818181",
"%	c #7C7C7C",
"&	c #FFFFFF",
"*	c #989898",
"=	c #3A3A3A",
"-	c #0E0E0E",
";	c #8B8B8B",
">	c #8A8A8A",
",	c #959595",
"'	c #949494",
")	c #9E9E9E",
"!	c #9F9F9F",
"~	c #AAAAAA",
"{	c #A8A8A8",
"]	c #B3B3B3",
"^	c #B2B2B2",
"/	c #B0B0B0",
"(	c #BDBDBD",
"_	c #BCBCBC",
":	c #C8C8C8",
"<	c #C7C7C7",
"[	c #D3D3D3",
"}	c #D2D2D2",
"|	c #D1D1D1",
"1	c #CECECE",
"2	c #DCDCDC",
"3	c #E6E6E6",
"4	c #F0F0F0",
"5	c #EFEFEF",
"6	c #F9F9F9",
"7	c #FBFBFB",
"8	c #FAFAFA",
"                                                ",
"                                                ",
"                                                ",
"                                                ",
"                                                ",
"                   .+.@@@@.+.                   ",
"                @++@@@@@@@@@@++@                ",
"              #+@@@@@@@@@@@@@@@@+#              ",
"             $@@@@@@@@@@@@@@@@@@@@$             ",
"           #+@@@@@+@@@%  %@@@+@@@@@+#           ",
"          @+@@@@@@            @@@@@@+@          ",
"         #+@@@@@                @@@@@+#         ",
"         +@@@+.                  .+@@@+         ",
"        $@@@+@        &&&&        @+@@@$        ",
"       #@@@@.      &&&&&&&&&&      .@@@@#       ",
"       +@@@@     &&&&&&&&&&&&&&     @@@@+       ",
"      @@@@@     &&&&&&&&&&&&&&&&     @@@@@      ",
"      +@@@@    &&&&&&&&&&&&&&&&&&    @@@@+      ",
"      +@@+     &&&&&&&&&&&&&&&&&&     +@@+      ",
"     .@@@@    &&&&&&&&&&&&&&&&&&&&    @@@@.     ",
"     +@@@@    &&&&&&&&&&&&&&&&&&&&    @@@@+     ",
"     .@@@@    &&&&&&&&&**&&&&&&&&&    @@@@.     ",
"     @@@@%   &&&&&&&&&&==&&&&&&&&&&   %@@@@     ",
"     @@@@    &&&&&&&&*=--=*&&&&&&&&    @@@@     ",
"     @@@@    &&&&&&&&*=--=*&&&&&&&&    @@@@     ",
"     @@@@%   &&&&&&&&&&==&&&&&&&&&&   %@@@@     ",
"     .@@@@    &&&&&&&&&**&&&&&&&&&    @@@@.     ",
"     +@@@@    &&&&&&&&&&&&&&&&&&&&    @@@@+     ",
"     .@@@@    &&&&&&&&&&&&&&&&&&&&    @@@@.     ",
"      +@@+     &&&&&&&&&&&&&&&&&&     +@@+      ",
"      $+++$    &&&&&&&&&&&&&&&&&&    $+++$      ",
"      ;>>>;     &&&&&&&&&&&&&&&&     ;>>>;      ",
"       ,''',     &&&&&&&&&&&&&&     ,''',       ",
"       )))))!      &&&&&&&&&&      !)))))       ",
"        ~{{{{{        &&&&        {{{{{~        ",
"         ]^^^^/                  /^^^^]         ",
"         ((_____                _____((         ",
"          :<::::<<            <<::::<:          ",
"           [[}}}}}|||11  11|||}}}}}[[           ",
"             2222222222222222222222             ",
"              33333333333333333333              ",
"                4554444444444554                ",
"                   6786666876                   ",
"                                                ",
"                                                ",
"                                                ",
"                                                ",
"                                                "};
