/* XPM */
static const char * circle_xpm[] = {
"48 48 32 1",
" 	c None",
".	c #800080",
"+	c #7E007E",
"@	c #7F007F",
"#	c #810081",
"$	c #FF00FF",
"%	c #980098",
"&	c #3A003A",
"*	c #0E000E",
"=	c #8A008A",
"-	c #8B008B",
";	c #950095",
">	c #940094",
",	c #9E009E",
"'	c #AA00AA",
")	c #A800A8",
"!	c #B300B3",
"~	c #B200B2",
"{	c #BD00BD",
"]	c #BC00BC",
"^	c #C700C7",
"/	c #C800C8",
"(	c #D300D3",
"_	c #D200D2",
":	c #D100D1",
"<	c #DC00DC",
"[	c #E600E6",
"}	c #EF00EF",
"|	c #F000F0",
"1	c #FB00FB",
"2	c #FA00FA",
"3	c #F900F9",
"                                                ",
"                                                ",
"                                                ",
"                                                ",
"                                                ",
"                    .+@@@@+.                    ",
"                 ..@@@@@@@@@@..                 ",
"               .@@@@@@@@@@@@@@@@.               ",
"             #@@@@@@@@@@@@@@@@@@@@#             ",
"            .@@@@@.@        @.@@@@@.            ",
"           .@@@@@              @@@@@.           ",
"          .@@@@@                @@@@@.          ",
"         .@@@.        $$$$        .@@@.         ",
"        #@@@.      $$$$$$$$$$      .@@@#        ",
"        @@@@     $$$$$$$$$$$$$$     @@@@        ",
"       .@@@@    $$$$$$$$$$$$$$$$    @@@@.       ",
"       @@@@    $$$$$$$$$$$$$$$$$$    @@@@       ",
"      .@@@    $$$$$$$$$$$$$$$$$$$$    @@@.      ",
"      .@@.    $$$$$$$$$$$$$$$$$$$$    .@@.      ",
"      @@@@   $$$$$$$$$$$$$$$$$$$$$$   @@@@      ",
"     .@@@    $$$$$$$$$$$$$$$$$$$$$$    @@@.     ",
"     +@@@    $$$$$$$$$$%%$$$$$$$$$$    @@@+     ",
"     @@@@   $$$$$$$$$$$&&$$$$$$$$$$$   @@@@     ",
"     @@@@   $$$$$$$$$%&**&%$$$$$$$$$   @@@@     ",
"     @@@@   $$$$$$$$$%&**&%$$$$$$$$$   @@@@     ",
"     @@@@   $$$$$$$$$$$&&$$$$$$$$$$$   @@@@     ",
"     +@@@    $$$$$$$$$$%%$$$$$$$$$$    @@@+     ",
"     .@@@    $$$$$$$$$$$$$$$$$$$$$$    @@@.     ",
"      @@@@   $$$$$$$$$$$$$$$$$$$$$$   @@@@      ",
"      .@@.    $$$$$$$$$$$$$$$$$$$$    .@@.      ",
"      #...    $$$$$$$$$$$$$$$$$$$$    ...#      ",
"       ===-    $$$$$$$$$$$$$$$$$$    -===       ",
"       ;>>>;    $$$$$$$$$$$$$$$$    ;>>>;       ",
"        ,,,,     $$$$$$$$$$$$$$     ,,,,        ",
"        '))))      $$$$$$$$$$      ))))'        ",
"         !~~~~        $$$$        ~~~~!         ",
"          {]]]]]                ]]]]]{          ",
"           ^////^              ^////^           ",
"            (_____::        ::_____(            ",
"             <<<<<<<<<<<<<<<<<<<<<<             ",
"               [[[[[[[[[[[[[[[[[[               ",
"                 }}||||||||||}}                 ",
"                    12333321                    ",
"                                                ",
"                                                ",
"                                                ",
"                                                ",
"                                                "};
